<svg width="35" height="35" viewBox="0 0 35 35" fill="none" xmlns="http://www.w3.org/2000/svg">
<path fill-rule="evenodd" clip-rule="evenodd" d="M3.81204 7.91292C3.97762 7.51316 4.25804 7.17148 4.61782 6.9311C4.97761 6.69073 5.4006 6.56245 5.83329 6.5625H20.4166C23.3174 6.5625 26.0994 7.71484 28.1506 9.76602C30.2018 11.8172 31.3541 14.5992 31.3541 17.5C31.3541 20.4008 30.2018 23.1828 28.1506 25.234C26.0994 27.2852 23.3174 28.4375 20.4166 28.4375H7.29163C6.71146 28.4375 6.15506 28.207 5.74483 27.7968C5.33459 27.3866 5.10413 26.8302 5.10413 26.25C5.10413 25.6698 5.33459 25.1134 5.74483 24.7032C6.15506 24.293 6.71146 24.0625 7.29163 24.0625H20.4166C22.1571 24.0625 23.8263 23.3711 25.057 22.1404C26.2877 20.9097 26.9791 19.2405 26.9791 17.5C26.9791 15.7595 26.2877 14.0903 25.057 12.8596C23.8263 11.6289 22.1571 10.9375 20.4166 10.9375H11.1139L12.4847 12.3083C12.883 12.7211 13.1033 13.2738 13.098 13.8473C13.0928 14.4209 12.8624 14.9694 12.4567 15.3748C12.0509 15.7802 11.5021 16.01 10.9286 16.0147C10.355 16.0194 9.80255 15.7987 9.39017 15.4L4.286 10.2958C3.98031 9.98996 3.77214 9.60035 3.68778 9.17623C3.60342 8.7521 3.64666 8.31248 3.81204 7.91292Z" fill="#7AD7FF"/>
</svg>
