<svg width="128" height="128" viewBox="0 0 45 45" fill="none" xmlns="http://www.w3.org/2000/svg">
<path d="M5.15391 40.6898C5.63555 41.0625 7.02422 38.6613 12.2555 38.3414C17.8559 37.9968 24.0539 42.4511 32.5441 42.4511C40.0711 42.4511 43.9699 38.7667 43.7027 38.1796C43.5234 37.7894 40.5527 37.0722 37.1355 35.2968C33.0258 33.1628 28.698 31.0253 25.3898 26.2195C23.2699 23.1433 21.7582 19.5996 23.843 16.8222C25.9242 14.0449 31.2117 15.3281 31.2117 15.3281L24.0047 7.53394L10.2832 11.2746L3.33984 28.6804L4.08867 37.5433L5.15391 40.6898Z" fill="url(#paint0_radial_59_1405)"/>
<path d="M20.8336 12.695C20.8336 12.695 22.5105 13.2294 24.757 14.4001C28.4941 16.3512 30.7582 19.4204 33.068 19.6102C35.4656 19.8036 36.6926 18.4219 36.1687 15.5391C35.6801 12.8497 31.7109 9.69265 31.7109 9.69265C31.7109 9.69265 35.3355 10.3747 35.3355 8.29695C35.3355 6.16296 33.3808 5.1364 30.3047 4.0782C28.2551 3.37507 22.7426 1.81413 15.3527 4.61257C12.1746 5.81492 8.29334 8.03679 5.34725 12.2942C1.49412 17.863 0.713653 25.1052 1.4449 30.6036C2.33084 37.2446 5.09412 40.6688 5.16092 40.6969C5.22772 40.7251 5.58983 32.8887 8.68006 29.4891C11.3133 26.5923 14.0062 27.7805 17.2055 27.6223C20.9777 27.436 22.6617 23.5407 19.7824 20.57C17.3109 18.0176 13.2152 18.2462 13.2152 18.2462C13.2152 18.2462 14.5722 17.7048 17.1492 17.4727C20.1094 17.202 20.693 15.4829 20.9039 14.8395C21.3715 13.4192 20.8336 12.695 20.8336 12.695Z" fill="#1B6DA4"/>
<path d="M13.4121 12.7618C13.2152 11.6016 16.6324 10.554 20.2113 11.1165C25.7801 11.9918 30.1887 17.0719 32.059 17.8137C34.8152 18.9106 35.7856 16.6571 34.4039 14.2172C32.9801 11.6965 29.2113 9.552 29.352 8.7188C29.6051 7.23872 33.4652 9.49223 33.7008 7.84692C33.859 6.75708 30.9762 5.18911 28.2375 4.4895C26.0332 3.927 21.4031 3.23442 15.0047 6.02231C6.68672 9.65395 3.09024 16.8786 2.4961 24.4477C1.9336 31.6266 4.67579 36.9774 4.67579 36.9774C4.67579 36.9774 4.86211 31.6196 7.54805 28.67C9.50977 26.5184 12.027 25.7098 14.7586 26.2301C19.3148 27.102 21.3012 23.8079 19.1109 21.4278C17.6766 19.8704 15.8379 19.3852 13.9359 19.3219C10.6488 19.2165 8.88047 20.3168 8.78555 19.9442C8.64493 19.3782 10.4273 18.0668 12.6879 17.1247C15.6621 15.8872 19.2516 16.7344 19.8141 14.2454C20.0883 13.0325 19.4027 12.368 17.441 12.2239C14.9625 12.0446 13.4262 12.8461 13.4121 12.7618Z" fill="white"/>
<defs>
<radialGradient id="paint0_radial_59_1405" cx="0" cy="0" r="1" gradientUnits="userSpaceOnUse" gradientTransform="translate(21.0414 -0.493995) scale(39.9751)">
<stop offset="0.423" stop-color="#45D6F0"/>
<stop offset="0.518" stop-color="#41CDE9"/>
<stop offset="0.674" stop-color="#37B4D7"/>
<stop offset="0.87" stop-color="#278BBA"/>
<stop offset="1" stop-color="#1B6DA4"/>
</radialGradient>
</defs>
</svg>
