<svg width="35" height="35" viewBox="0 0 35 35" fill="none" xmlns="http://www.w3.org/2000/svg">
<path d="M5.83329 29.1666C5.03121 29.1666 4.34434 28.8808 3.77267 28.3091C3.201 27.7375 2.91566 27.0511 2.91663 26.25V8.74998C2.91663 7.9479 3.20246 7.26102 3.77413 6.68936C4.3458 6.11769 5.03218 5.83234 5.83329 5.83332H29.1666C29.9687 5.83332 30.6556 6.11915 31.2273 6.69082C31.7989 7.26248 32.0843 7.94887 32.0833 8.74998V26.25C32.0833 27.0521 31.7975 27.7389 31.2258 28.3106C30.6541 28.8823 29.9677 29.1676 29.1666 29.1666H5.83329ZM17.5 18.9583L5.83329 11.6666V26.25H29.1666V11.6666L17.5 18.9583ZM17.5 16.0416L29.1666 8.74998H5.83329L17.5 16.0416ZM5.83329 11.6666V8.74998V26.25V11.6666Z" fill="#45D6F0"/>
</svg>
