<svg width="31" height="24" viewBox="0 0 31 24" fill="none" xmlns="http://www.w3.org/2000/svg">
<path d="M1.55 4H29.45C29.8611 4 30.2553 3.78929 30.546 3.41421C30.8367 3.03914 31 2.53043 31 2C31 1.46957 30.8367 0.96086 30.546 0.585787C30.2553 0.210714 29.8611 0 29.45 0H1.55C1.13891 0 0.744666 0.210714 0.453984 0.585787C0.163303 0.96086 0 1.46957 0 2C0 2.53043 0.163303 3.03914 0.453984 3.41421C0.744666 3.78929 1.13891 4 1.55 4ZM29.45 20H1.55C1.13891 20 0.744666 20.2107 0.453984 20.5858C0.163303 20.9609 0 21.4696 0 22C0 22.5304 0.163303 23.0391 0.453984 23.4142C0.744666 23.7893 1.13891 24 1.55 24H29.45C29.8611 24 30.2553 23.7893 30.546 23.4142C30.8367 23.0391 31 22.5304 31 22C31 21.4696 30.8367 20.9609 30.546 20.5858C30.2553 20.2107 29.8611 20 29.45 20ZM29.45 10H1.55C1.13891 10 0.744666 10.2107 0.453984 10.5858C0.163303 10.9609 0 11.4696 0 12C0 12.5304 0.163303 13.0391 0.453984 13.4142C0.744666 13.7893 1.13891 14 1.55 14H29.45C29.8611 14 30.2553 13.7893 30.546 13.4142C30.8367 13.0391 31 12.5304 31 12C31 11.4696 30.8367 10.9609 30.546 10.5858C30.2553 10.2107 29.8611 10 29.45 10Z" fill="#7AD7FF"/>
</svg>
