<svg width="26" height="33" viewBox="0 0 26 33" fill="none" xmlns="http://www.w3.org/2000/svg">
<path d="M2 18.1667C2 17.3091 2.33691 16.4867 2.93661 15.8804C3.53632 15.274 4.34969 14.9333 5.1978 14.9333H21.1868C22.0349 14.9333 22.8483 15.274 23.448 15.8804C24.0477 16.4867 24.3846 17.3091 24.3846 18.1667V27.8667C24.3846 28.7242 24.0477 29.5466 23.448 30.153C22.8483 30.7594 22.0349 31.1 21.1868 31.1H5.1978C4.34969 31.1 3.53632 30.7594 2.93661 30.153C2.33691 29.5466 2 28.7242 2 27.8667V18.1667Z" stroke="#45D6F0" stroke-width="3" stroke-linecap="round" stroke-linejoin="round"/>
<path d="M6.79688 14.9333V8.46667C6.79688 6.7516 7.4707 5.10678 8.6701 3.89404C9.86951 2.68131 11.4963 2 13.1925 2C14.8887 2 16.5154 2.68131 17.7149 3.89404C18.9143 5.10678 19.5881 6.7516 19.5881 8.46667V14.9333M11.5936 23.0167C11.5936 23.4454 11.762 23.8566 12.0619 24.1598C12.3617 24.463 12.7684 24.6333 13.1925 24.6333C13.6165 24.6333 14.0232 24.463 14.3231 24.1598C14.6229 23.8566 14.7914 23.4454 14.7914 23.0167C14.7914 22.5879 14.6229 22.1767 14.3231 21.8735C14.0232 21.5703 13.6165 21.4 13.1925 21.4C12.7684 21.4 12.3617 21.5703 12.0619 21.8735C11.762 22.1767 11.5936 22.5879 11.5936 23.0167Z" stroke="#45D6F0" stroke-width="3" stroke-linecap="round" stroke-linejoin="round"/>
</svg>
