<svg width="24" height="24" viewBox="0 0 24 24" fill="none" xmlns="http://www.w3.org/2000/svg">
<path d="M24 12C24 12.3819 23.8483 12.7482 23.5782 13.0182C23.3082 13.2883 22.9419 13.44 22.56 13.44H13.44V22.56C13.44 22.9419 13.2883 23.3082 13.0182 23.5782C12.7482 23.8483 12.3819 24 12 24C11.6181 24 11.2518 23.8483 10.9818 23.5782C10.7117 23.3082 10.56 22.9419 10.56 22.56V13.44H1.44C1.05809 13.44 0.691819 13.2883 0.421766 13.0182C0.151714 12.7482 0 12.3819 0 12C0 11.6181 0.151714 11.2518 0.421766 10.9818C0.691819 10.7117 1.05809 10.56 1.44 10.56H10.56V1.44C10.56 1.05809 10.7117 0.691819 10.9818 0.421766C11.2518 0.151714 11.6181 0 12 0C12.3819 0 12.7482 0.151714 13.0182 0.421766C13.2883 0.691819 13.44 1.05809 13.44 1.44V10.56H22.56C22.9419 10.56 23.3082 10.7117 23.5782 10.9818C23.8483 11.2518 24 11.6181 24 12Z" fill="white"/>
</svg>
