<svg width="32" height="32" viewBox="0 0 32 32" fill="none" xmlns="http://www.w3.org/2000/svg">
<path d="M16 2C8.26801 2 2 8.26801 2 16C2 23.7319 8.26801 30 16 30C23.7319 30 30 23.7319 30 16C30 8.26801 23.7319 2 16 2Z" stroke="#45D6F0" stroke-width="3" stroke-linecap="round" stroke-linejoin="round"/>
<path d="M5.17944 24.884C5.17944 24.884 8.30007 20.9 16 20.9C23.7 20.9 26.8208 24.884 26.8208 24.884" stroke="#45D6F0" stroke-width="3" stroke-linecap="round" stroke-linejoin="round"/>
<path d="M16 16C18.3197 16 20.2 14.1196 20.2 11.8C20.2 9.48039 18.3197 7.59998 16 7.59998C13.6804 7.59998 11.8 9.48039 11.8 11.8C11.8 14.1196 13.6804 16 16 16Z" stroke="#45D6F0" stroke-width="3" stroke-linecap="round" stroke-linejoin="round"/>
</svg>
